<svg width="160" height="82" viewBox="0 0 160 82" fill="none" xmlns="http://www.w3.org/2000/svg">
<path fill-rule="evenodd" clip-rule="evenodd" d="M8.64271 0H0V61.7336L8.64271 68.3185V0ZM46.9175 0H58.0296L28.3076 28.0332L43.2135 39.3133V50.2894L15.2451 29.2337L15.2276 29.2206V29.2205L15.2277 29.2205L46.9175 0Z" fill="url(#paint0_linear_140_16)"/>
<path fill-rule="evenodd" clip-rule="evenodd" d="M49.7985 29.8379L58.0297 36.0113V81.2826L58.0295 81.2825L58.0296 81.2826L58.0085 81.2667L49.7985 75.1092V75.0657L25.105 56.4148V80.6653L15.2276 73.2572V48.9544V45.2713V37.0402L49.7985 63.0613V29.8379Z" fill="url(#paint1_linear_140_16)"/>
<path d="M67.5326 60.5554V31.7637H70.4507V60.5554H67.5326Z" fill="white"/>
<path d="M84.7627 60.9445C82.7395 60.9445 80.9367 60.5036 79.3545 59.6216C77.7982 58.7397 76.5791 57.5077 75.6971 55.9254C74.8152 54.3432 74.3743 52.5275 74.3743 50.4783C74.3743 48.8961 74.6207 47.4694 75.1135 46.1985C75.6064 44.9015 76.2937 43.7732 77.1756 42.8135C78.0835 41.8538 79.1599 41.1145 80.405 40.5957C81.65 40.051 82.9988 39.7787 84.4514 39.7787C85.8261 39.7787 87.0712 40.0251 88.1865 40.5179C89.3278 41.0108 90.3005 41.6981 91.1046 42.58C91.9347 43.436 92.5572 44.4606 92.9722 45.6538C93.3872 46.8469 93.5688 48.1568 93.5169 49.5834L93.478 50.9452H76.5531L76.1251 48.494H91.2603L90.5599 49.1555V48.2217C90.508 47.2879 90.2357 46.393 89.7429 45.537C89.25 44.6551 88.5497 43.9418 87.6418 43.3971C86.7599 42.8524 85.6964 42.58 84.4514 42.58C82.9988 42.58 81.7408 42.8783 80.6773 43.4749C79.6139 44.0456 78.7968 44.9015 78.2262 46.0428C77.6555 47.1841 77.3702 48.5978 77.3702 50.2838C77.3702 51.892 77.6814 53.2926 78.304 54.4858C78.9265 55.6531 79.8084 56.5609 80.9497 57.2094C82.1169 57.8578 83.5176 58.1821 85.1517 58.1821C86.1115 58.1821 87.0582 58.0264 87.992 57.7152C88.9517 57.378 90.0022 56.7295 91.1435 55.7698L92.6609 57.8708C92.0644 58.4674 91.351 58.9991 90.521 59.466C89.691 59.907 88.7831 60.2701 87.7975 60.5554C86.8118 60.8148 85.8002 60.9445 84.7627 60.9445Z" fill="white"/>
<path d="M105.599 60.9445C103.835 60.9445 102.24 60.4906 100.813 59.5827C99.3864 58.649 98.2581 57.3909 97.4281 55.8087C96.598 54.2005 96.183 52.3848 96.183 50.3616C96.183 48.3124 96.611 46.4968 97.467 44.9145C98.3229 43.3323 99.4642 42.0872 100.891 41.1794C102.343 40.2715 103.965 39.8176 105.754 39.8176C106.818 39.8176 107.803 39.9732 108.711 40.2845C109.619 40.5957 110.423 41.0367 111.124 41.6073C111.85 42.1521 112.446 42.8005 112.913 43.5527C113.406 44.279 113.743 45.0701 113.925 45.9261L113.069 45.4981L113.186 40.2456H116.104V60.5554H113.147V55.5752L113.925 55.0694C113.743 55.8476 113.393 56.5998 112.874 57.3261C112.356 58.0264 111.72 58.649 110.968 59.1937C110.242 59.7384 109.412 60.1664 108.478 60.4776C107.57 60.7889 106.61 60.9445 105.599 60.9445ZM106.26 58.1432C107.609 58.1432 108.815 57.8189 109.879 57.1705C110.942 56.4961 111.772 55.5752 112.369 54.408C112.991 53.2148 113.302 51.866 113.302 50.3616C113.302 48.8572 112.991 47.5213 112.369 46.3541C111.772 45.1869 110.942 44.266 109.879 43.5916C108.815 42.9172 107.609 42.58 106.26 42.58C104.885 42.58 103.666 42.9172 102.603 43.5916C101.565 44.266 100.735 45.1869 100.113 46.3541C99.5161 47.5213 99.2178 48.8572 99.2178 50.3616C99.2178 51.8401 99.5161 53.1759 100.113 54.3691C100.709 55.5363 101.539 56.4571 102.603 57.1315C103.666 57.8059 104.885 58.1432 106.26 58.1432Z" fill="white"/>
<path d="M130.037 60.9445C128.196 60.9445 126.536 60.4906 125.057 59.5827C123.605 58.6749 122.45 57.4298 121.594 55.8476C120.764 54.2394 120.349 52.4237 120.349 50.4005C120.349 48.3514 120.777 46.5357 121.633 44.9534C122.489 43.3452 123.643 42.0872 125.096 41.1794C126.549 40.2715 128.183 39.8176 129.998 39.8176C131.01 39.8176 131.983 39.9732 132.917 40.2845C133.876 40.5957 134.732 41.0367 135.484 41.6073C136.237 42.1521 136.859 42.7875 137.352 43.5138C137.845 44.2142 138.143 44.9534 138.247 45.7316L137.352 45.4203V31.7637H140.27V60.5554H137.391L137.313 55.4974L138.052 55.2251C137.949 55.9513 137.65 56.6647 137.157 57.365C136.691 58.0394 136.094 58.649 135.368 59.1937C134.641 59.7384 133.811 60.1664 132.878 60.4776C131.97 60.7889 131.023 60.9445 130.037 60.9445ZM130.465 58.2599C131.814 58.2599 133.02 57.9227 134.084 57.2483C135.147 56.5739 135.977 55.6401 136.574 54.4469C137.196 53.2537 137.508 51.892 137.508 50.3616C137.508 48.8312 137.196 47.4824 136.574 46.3152C135.977 45.122 135.147 44.1882 134.084 43.5138C133.02 42.8135 131.814 42.4633 130.465 42.4633C129.065 42.4633 127.833 42.8135 126.769 43.5138C125.732 44.1882 124.902 45.122 124.279 46.3152C123.682 47.4824 123.384 48.8312 123.384 50.3616C123.384 51.866 123.682 53.2148 124.279 54.408C124.876 55.6012 125.706 56.5479 126.769 57.2483C127.833 57.9227 129.065 58.2599 130.465 58.2599Z" fill="white"/>
<path d="M152.608 60.9445C150.87 60.9445 149.313 60.6203 147.939 59.9718C146.564 59.3234 145.474 58.4674 144.67 57.4039L146.732 55.6141C147.485 56.522 148.367 57.2094 149.378 57.6763C150.416 58.1431 151.57 58.3766 152.841 58.3766C153.489 58.3766 154.073 58.3118 154.592 58.1821C155.111 58.0264 155.564 57.8059 155.954 57.5206C156.343 57.2353 156.641 56.8981 156.848 56.509C157.056 56.1199 157.16 55.692 157.16 55.2251C157.16 54.3691 156.784 53.6558 156.031 53.0851C155.694 52.8517 155.214 52.6182 154.592 52.3848C153.969 52.1254 153.217 51.879 152.335 51.6456C150.883 51.2305 149.676 50.8155 148.717 50.4005C147.757 49.9595 147.005 49.4537 146.46 48.8831C146.071 48.4162 145.773 47.9104 145.565 47.3657C145.384 46.821 145.293 46.2244 145.293 45.5759C145.293 44.7459 145.461 43.9807 145.799 43.2804C146.162 42.58 146.655 41.9705 147.277 41.4517C147.926 40.907 148.678 40.505 149.534 40.2456C150.416 39.9602 151.362 39.8176 152.374 39.8176C153.334 39.8176 154.281 39.9473 155.214 40.2067C156.148 40.466 157.017 40.8422 157.821 41.335C158.625 41.8278 159.313 42.4114 159.883 43.0858L158.094 45.0312C157.601 44.5125 157.056 44.0456 156.459 43.6305C155.863 43.2155 155.227 42.8913 154.553 42.6579C153.904 42.4244 153.23 42.3077 152.53 42.3077C151.907 42.3077 151.324 42.3855 150.779 42.5411C150.26 42.6968 149.806 42.9172 149.417 43.2026C149.054 43.4619 148.769 43.7862 148.561 44.1753C148.38 44.5643 148.289 44.9923 148.289 45.4592C148.289 45.8483 148.367 46.1985 148.522 46.5097C148.678 46.821 148.898 47.0933 149.184 47.3268C149.547 47.6121 150.053 47.8845 150.701 48.1438C151.375 48.3773 152.205 48.6237 153.191 48.8831C154.332 49.1944 155.292 49.5186 156.07 49.8558C156.874 50.1671 157.536 50.5432 158.055 50.9841C158.755 51.5029 159.248 52.0995 159.533 52.7739C159.844 53.4483 160 54.2135 160 55.0694C160 56.2107 159.676 57.2223 159.027 58.1042C158.405 58.9862 157.536 59.6865 156.42 60.2053C155.305 60.6981 154.034 60.9445 152.608 60.9445Z" fill="white"/>
<defs>
<linearGradient id="paint0_linear_140_16" x1="29.0148" y1="0" x2="29.0148" y2="81.2826" gradientUnits="userSpaceOnUse">
<stop stop-color="#198EE3"/>
<stop offset="1" stop-color="#062134"/>
</linearGradient>
<linearGradient id="paint1_linear_140_16" x1="36.6286" y1="29.8379" x2="36.6286" y2="81.2826" gradientUnits="userSpaceOnUse">
<stop stop-color="#22B793"/>
<stop offset="1" stop-color="#135F4D"/>
</linearGradient>
</defs>
</svg>
